# xmcd
#
# Track frame offsets: 
#        150
#        19680
#        37613
#        59983
#        76175
#        92530
#        107373
#        121733
#        138808
#        153505
#
# Disc length: 2242 seconds
#
# Revision: 7
# Processed by: cddbd v1.5.2PL0 Copyright (c) Steve Scherf et al.
# Submitted via: ExactAudioCopy v0.99pb4
#
DISCID=6a08c00a
DTITLE=Reba McEntire - Greatest Hits - Vol. II
DYEAR=1993
DGENRE=Country
TTITLE0=Does He Love You (Duet With Linda Davis)
TTITLE1=You Lie
TTITLE2=Fancy
TTITLE3=For My Broken Heart
TTITLE4=Love Will Find Its Way To You
TTITLE5=They Asked About You
TTITLE6=Is There Life Out There
TTITLE7=Rumor Has It
TTITLE8=Walk On
TTITLE9=The Greatest Man I Never Knew
EXTD=YEAR: 1993 ID3G: 2\nMCA Records\nMCAD-10906\n# 0881-10906-2
EXTT0=
EXTT1=
EXTT2=
EXTT3=
EXTT4=
EXTT5=
EXTT6=
EXTT7=
EXTT8=
EXTT9=
PLAYORDER=
